# xmcd
#
# Track frame offsets:
# 150
# 20960
# 34853
# 45641
# 58494
# 73377
# 92847
# 108980
# 124470
# 136509
# 149411
# 161638
# 171824
# 186743
# 196981
# 209129
# 222899
# 237939
#
# Disc length: 3356 seconds
#
#
# Revision: 0
# Processed by: cddbd v1.5.1PL2 Copyright (c) Steve Scherf et al.
# Submitted via: FreeRIP 2.942 
#
DISCID=290d1a12
DTITLE=Mário e Thizil e a Vocalista Lúcia - Vol.06 - Ao Vivo
DYEAR=2005
DGENRE=Country
TTITLE0=O Amor e o Poder
TTITLE1=Por Te Amar Demais
TTITLE2=Bom. Bom. Bom
TTITLE3=Beijinho
TTITLE4=Cara
TTITLE5=Choram as Rosas
TTITLE6=Bandida
TTITLE7=Deus Me Livre
TTITLE8=Que Pescar Que Nada
TTITLE9=Abre a Janela
TTITLE10=Chamada a Cobrar
TTITLE11=Pelejando
TTITLE12=Clube do Batidão
TTITLE13=Nois é do Mato
TTITLE14=O Caldeirão
TTITLE15=Solte a Garganta
TTITLE16=Por Que Choras
TTITLE17=Sou Mais Eu
EXTD=
EXTT0=
EXTT1=
EXTT2=
EXTT3=
EXTT4=
EXTT5=
EXTT6=
EXTT7=
EXTT8=
EXTT9=
EXTT10=
EXTT11=
EXTT12=
EXTT13=
EXTT14=
EXTT15=
EXTT16=
EXTT17=
PLAYORDER=
